<?xml version="1.0" encoding="utf-8"?>
<!-- Generator: Adobe Illustrator 15.0.0, SVG Export Plug-In . SVG Version: 6.00 Build 0)  -->
<!DOCTYPE svg PUBLIC "-//W3C//DTD SVG 1.1//EN" "http://www.w3.org/Graphics/SVG/1.1/DTD/svg11.dtd">
<svg version="1.1" id="Layer_1" xmlns="http://www.w3.org/2000/svg" xmlns:xlink="http://www.w3.org/1999/xlink" x="0px" y="0px"
	 width="142.048px" height="50px" viewBox="0 0 142.048 50" enable-background="new 0 0 142.048 50" xml:space="preserve">
<path fill="#ED1C24" d="M-84.984,11.185h-13.064v-3.05c0-1.908-1.552-3.459-3.455-3.459h-9.998c-1.909,0-3.459,1.551-3.459,3.459
	v3.05h-13.063c-1.907,0-3.459,1.551-3.459,3.458v25.911c0,1.909,1.553,3.462,3.459,3.462h43.04c1.906,0,3.457-1.553,3.457-3.459
	V14.643C-81.527,12.736-83.078,11.185-84.984,11.185z M-94.947,12.831v29.538h-23.065V12.831H-94.947z M-113.313,8.134
	c0-1,0.812-1.812,1.813-1.812h9.998c0.996,0,1.81,0.812,1.81,1.812v3.05h-13.62V8.134z M-129.836,40.554V14.643
	c0-0.999,0.815-1.812,1.813-1.812h4.059v29.538h-4.059C-129.021,42.369-129.836,41.554-129.836,40.554z M-83.174,40.557
	c0,0.997-0.81,1.813-1.81,1.813h-4.01V12.831h4.01c1,0,1.81,0.813,1.81,1.812V40.557z"/>
<g>
	<g>
		<path fill="#FFFFFF" d="M-99.968,50.159L-99.968,50.159c-0.801,0-1.633-0.415-2.409-1.202l-0.426-0.429
			c-7.179-7.142-19.465-20.16-21.095-27.13c-0.986-4.213-0.195-8.867,2.17-12.767c2.443-4.032,6.22-6.82,10.632-7.851
			c1.274-0.298,2.579-0.449,3.879-0.449c7.902,0,14.941,5.573,16.738,13.251c1.798,7.688-4.44,26.328-6.488,32.452
			c-0.315,0.938-0.521,1.545-0.563,1.722C-98.033,49.925-99.403,50.159-99.968,50.159z M-107.216,1.969
			c-1.174,0-2.353,0.136-3.508,0.406c-3.98,0.931-7.392,3.455-9.605,7.106c-2.144,3.537-2.865,7.745-1.974,11.544
			c1.122,4.8,8.65,14.401,20.656,26.343l0.438,0.439c0.445,0.455,0.897,0.715,1.24,0.715c0.506,0,0.746-0.712,0.845-1.136
			c0.047-0.192,0.264-0.854,0.604-1.87c5.399-16.143,7.567-26.76,6.446-31.561C-93.697,7.01-100.067,1.969-107.216,1.969z
			 M-107.197,27.318c-4.583,0-8.516-3.122-9.56-7.59c-1.231-5.275,2.055-10.571,7.331-11.806c0.737-0.173,1.494-0.26,2.244-0.26
			c4.583,0,8.516,3.121,9.562,7.59c0.598,2.556,0.163,5.192-1.22,7.422c-1.387,2.23-3.557,3.787-6.112,4.384
			C-105.69,27.232-106.444,27.318-107.197,27.318z M-107.182,9.299c-0.626,0-1.256,0.074-1.872,0.217
			c-4.395,1.028-7.137,5.442-6.109,9.839c0.87,3.724,4.148,6.327,7.965,6.327c0.626,0,1.256-0.074,1.874-0.218
			c2.128-0.498,3.937-1.795,5.091-3.653c1.155-1.858,1.517-4.055,1.019-6.185C-100.085,11.901-103.362,9.299-107.182,9.299z"/>
	</g>
	<path fill="#FFFFFF" d="M-103.786,18.39c-0.317-0.264-0.637-0.951-0.689-1.993c-0.059-1.258,0.296-2.643,0.977-3.8
		c0.076-0.131,0.114-0.275,0.114-0.416c0-0.28-0.146-0.553-0.405-0.706c-0.392-0.229-0.89-0.1-1.121,0.29
		c-1.199,2.034-3.189,3.132-4.455,3.132c-0.239,0-0.435-0.042-0.568-0.121c-0.392-0.23-0.891-0.099-1.121,0.29
		c-0.077,0.131-0.115,0.274-0.115,0.416c0,0.28,0.145,0.553,0.405,0.706c0.823,0.486,1.307,3.292-0.202,5.855
		c-0.077,0.13-0.113,0.273-0.113,0.414c0,0.282,0.145,0.554,0.402,0.707c0.13,0.078,0.275,0.113,0.416,0.113
		c0.279,0,0.554-0.144,0.706-0.402c1.2-2.037,3.191-3.135,4.458-3.135c0.238,0,0.432,0.041,0.566,0.12
		c0.13,0.078,0.273,0.113,0.414,0.113c0.014-0.001,0.029,0,0.042,0c0.452,0,0.819-0.367,0.819-0.819
		C-103.254,18.805-103.476,18.506-103.786,18.39z M-106.868,17.534c-0.117,0.202-0.377,0.268-0.577,0.15
		c-0.201-0.12-0.269-0.377-0.15-0.579c0.12-0.201,0.378-0.268,0.578-0.149C-106.817,17.074-106.751,17.333-106.868,17.534z"/>
</g>
<g>
	<path fill="#FFFFFF" d="M-123.249,13.954c-0.956,0-1.887,0.196-2.769,0.584c-1.682,0.741-2.975,2.092-3.64,3.806
		c-0.665,1.713-0.623,3.582,0.118,5.264c1.1,2.496,3.57,4.107,6.297,4.107c0.958,0,1.891-0.197,2.773-0.586
		c3.471-1.529,5.05-5.598,3.521-9.068C-118.047,15.566-120.52,13.954-123.249,13.954z M-121.124,25.646
		c-2.6,1.143-5.799-0.116-6.932-2.693c-0.568-1.285-0.599-2.714-0.091-4.023c0.508-1.309,1.496-2.342,2.783-2.908
		c0.673-0.298,1.387-0.447,2.115-0.447c2.087,0,3.978,1.232,4.817,3.14C-117.262,21.367-118.471,24.477-121.124,25.646z"/>
	<path fill="#FFFFFF" d="M-93.252,6.646c-1.83-0.867-3.801-1.305-5.854-1.305c-5.527,0-10.775,3.248-13.055,8.08
		c-0.261,0.546-0.469,1.211-0.653,1.936c-2.032-3.861-6.037-6.337-10.47-6.337c-1.636,0-3.225,0.335-4.727,0.997
		c-2.859,1.259-5.062,3.626-6.204,6.665c-1.105,2.939-1.048,6.19,0.154,8.919c1.969,4.47,11.762,11.603,17.426,15.456l0.337,0.23
		c0.536,0.375,1.087,0.57,1.591,0.57c0.824,0,1.807-0.566,1.875-2.166c0.004-0.072,0.029-0.252,0.059-0.488
		c-0.22-2.092-0.483-4.949-0.665-8.049c-0.208,2.17-0.483,4.529-0.842,7.133c-0.101,0.727-0.164,1.197-0.168,1.334
		c-0.008,0.143-0.044,0.617-0.258,0.617c-0.08,0-0.304-0.027-0.666-0.281l-0.351-0.238c-9.392-6.395-15.535-11.777-16.854-14.772
		c-1.034-2.345-1.078-5.149-0.12-7.695c0.988-2.627,2.884-4.67,5.341-5.752c1.293-0.571,2.665-0.86,4.073-0.86
		c4.068,0,7.746,2.387,9.375,6.082c0.224,0.511,0.39,1.198,0.529,1.963c-0.263,2.494-0.305,5.416-0.221,8.432
		c0.033,1.357,0.084,2.715,0.162,4.037c0.004-0.049,0.006-0.092,0.012-0.14c0.232,3.882,0.612,7.671,0.96,10.634l0.057,0.504
		c0.201,1.85,1.256,2.508,2.18,2.508c0.579,0,1.175-0.24,1.769-0.715c0.12-0.094,0.553-0.371,1.215-0.803
		c4.448-2.893,17.981-11.693,20.769-17.586C-83.131,18.475-86.17,9.991-93.252,6.646z M-87.943,24.864
		c-1.717,3.633-8.507,9.327-20.187,16.921c-0.735,0.479-1.211,0.789-1.34,0.893c-0.289,0.23-0.566,0.361-0.76,0.361
		c-0.312,0-0.511-0.533-0.567-1.059l-0.061-0.521c-1.613-13.754-1.554-23.722,0.16-27.347c2.022-4.277,6.68-7.151,11.592-7.151
		c1.812,0,3.55,0.387,5.163,1.149C-87.672,11.075-84.98,18.591-87.943,24.864z"/>
	<path fill="#FFFFFF" d="M-95.818,12.082c-1.106-0.523-2.282-0.788-3.498-0.788c-3.152,0-6.064,1.842-7.41,4.694
		c-1.931,4.085-0.177,8.977,3.905,10.907c1.105,0.523,2.282,0.788,3.497,0.788c3.156,0,6.064-1.843,7.41-4.695
		c0.937-1.978,1.046-4.203,0.308-6.264C-92.345,14.665-93.842,13.015-95.818,12.082z M-93.378,22.295
		c-1.08,2.289-3.413,3.766-5.945,3.766c-0.975,0-1.916-0.213-2.805-0.632c-3.276-1.549-4.682-5.474-3.133-8.75
		c1.079-2.288,3.414-3.765,5.945-3.765c0.976,0,1.916,0.213,2.805,0.632c1.588,0.75,2.787,2.073,3.377,3.726
		C-92.539,18.925-92.627,20.709-93.378,22.295z"/>
</g>
<g>
	<g>
		<g>
			<path fill="#FFFFFF" d="M-92.865,40.719h-43.29c-1.852,0-3.359-1.506-3.359-3.358V12.079c0-1.852,1.507-3.359,3.359-3.359h43.29
				c1.852,0,3.359,1.507,3.359,3.359V37.36C-89.505,39.213-91.013,40.719-92.865,40.719z M-136.154,10.32
				c-0.97,0-1.759,0.789-1.759,1.759V37.36c0,0.97,0.789,1.759,1.759,1.759h43.29c0.969,0,1.758-0.789,1.758-1.759V12.079
				c0-0.97-0.789-1.759-1.758-1.759H-136.154z"/>
		</g>
	</g>
	<g>
		<path fill="#FFFFFF" d="M-114.509,25.52c-3.375,0-18.631-10.322-20.359-11.5c-0.366-0.249-0.46-0.747-0.211-1.111
			c0.25-0.366,0.748-0.458,1.111-0.211c6.371,4.338,17.289,11.222,19.459,11.222c2.172,0,13.161-6.885,19.579-11.224
			c0.366-0.247,0.861-0.152,1.107,0.215c0.25,0.366,0.153,0.863-0.213,1.11C-95.777,15.199-111.135,25.52-114.509,25.52z"/>
	</g>
</g>
<g>
	<g>
		<path fill="#FFFFFF" d="M-103.284,24.85c-6.829,0-12.386-5.557-12.386-12.387c0-6.831,5.557-12.388,12.386-12.388
			c6.831,0,12.387,5.557,12.387,12.388C-90.897,19.293-96.453,24.85-103.284,24.85z M-103.284,1.736
			c-5.914,0-10.724,4.812-10.724,10.727c0,5.914,4.811,10.726,10.724,10.726c5.916,0,10.726-4.812,10.726-10.726
			C-92.558,6.548-97.368,1.736-103.284,1.736z"/>
	</g>
	<g>
		<path fill="#FFFFFF" d="M-79.043,50.076c-0.013-0.002-0.03-0.001-0.043,0l0,0l-48.378-0.013c-0.223-0.048-0.511-0.195-0.627-0.389
			c-0.121-0.193-0.249-0.438-0.19-0.658c3.604-13.6,13.645-22.737,24.983-22.737c11.298,0,21.3,9.037,24.952,22.516
			c0.082,0.13,0.135,0.284,0.135,0.451C-78.212,49.704-78.584,50.076-79.043,50.076z M-103.299,27.94
			c-10.292,0-19.463,8.185-23.09,20.477l46.208-0.002C-83.806,36.123-92.991,27.94-103.299,27.94z"/>
	</g>
</g>
<g>
	<path fill="#FFFFFF" d="M-73.311,42.352c-1.837-6.616-6.702-11.072-12.265-11.347c3.382-0.271,6.06-3.078,6.06-6.524
		c0-3.277-2.414-5.98-5.552-6.478c0.253-3.681-0.967-7.442-3.771-10.25c-2.494-2.491-5.811-3.865-9.336-3.865
		s-6.842,1.372-9.336,3.865c-5.142,5.148-5.142,13.525,0,18.674c2.495,2.492,5.811,3.866,9.336,3.866
		c2.442,0,4.776-0.673,6.814-1.907c1.1,1.479,2.797,2.46,4.737,2.619c-5.62,0.27-10.535,4.831-12.323,11.578
		c-0.114,0.434,0.146,0.881,0.577,1.003c0.073,0.021,0.15,0.035,0.227,0.035l24.1,0.004c0.014-0.002,0.028,0,0.041,0
		c0.454,0,0.823-0.369,0.823-0.823C-73.178,42.635-73.227,42.48-73.311,42.352z M-91.03,24.48c0-2.436,1.774-4.45,4.096-4.854
		c-0.46,2.066-1.466,4.032-3.066,5.636c-0.245,0.244-0.529,0.431-0.791,0.649C-90.932,25.455-91.03,24.981-91.03,24.48z
		 M-98.174,28.646c-3.086,0-5.988-1.202-8.173-3.384c-4.501-4.508-4.501-11.838,0-16.346c2.185-2.18,5.086-3.382,8.173-3.382
		s5.989,1.202,8.173,3.382c2.471,2.476,3.536,5.798,3.292,9.043c-3.337,0.313-5.968,3.1-5.968,6.521c0,0.87,0.179,1.697,0.487,2.456
		C-93.979,28.029-96.024,28.646-98.174,28.646z M-90.006,27.453c0.403-0.319,0.798-0.658,1.168-1.026
		c1.923-1.925,3.126-4.305,3.612-6.795c2.304,0.413,4.063,2.424,4.063,4.849c0,2.718-2.214,4.93-4.934,4.93
		C-87.695,29.41-89.104,28.634-90.006,27.453z M-97.049,41.975c1.854-5.652,6.149-9.375,10.944-9.375
		c4.804,0,9.107,3.725,10.961,9.379L-97.049,41.975z"/>
	<path fill="#FFFFFF" d="M-106.101,29.83c-1.016-0.596-1.933-1.299-2.724-2.09c-0.789-0.789-1.49-1.706-2.088-2.725
		c-0.13-0.223-0.354-0.368-0.606-0.402c-0.264-0.032-0.506,0.056-0.686,0.235l-10.558,10.559c-0.322,0.321-0.322,0.843,0,1.164
		l5.11,5.109c0.154,0.154,0.364,0.242,0.583,0.242s0.426-0.088,0.581-0.242l10.554-10.559c0.18-0.18,0.268-0.435,0.236-0.686
		C-105.732,30.184-105.88,29.959-106.101,29.83z M-117.07,39.934l-3.946-3.943l9.247-9.251c0.536,0.791,1.131,1.516,1.781,2.165
		c0.652,0.651,1.376,1.247,2.163,1.783L-117.07,39.934z"/>
</g>
<g>
	<path fill="#FFFFFF" d="M-144.066,48.531c-4.973,0-25.011-19.82-25.011-33.131c0-7.388,6.011-13.4,13.399-13.4
		c4.853,0,9.244,2.585,11.611,6.714C-141.694,4.585-137.305,2-132.452,2c7.389,0,13.399,6.012,13.399,13.4
		C-119.053,28.711-139.091,48.531-144.066,48.531z M-155.677,3.675c-6.465,0-11.725,5.26-11.725,11.725
		c0,12.063,19.171,31.458,23.336,31.458c4.167,0,23.338-19.395,23.338-31.458c0-6.465-5.26-11.725-11.725-11.725
		c-4.763,0-9.02,2.848-10.84,7.255c-0.128,0.313-0.434,0.518-0.774,0.518l0,0c-0.338,0-0.643-0.205-0.774-0.518
		C-146.658,6.522-150.914,3.675-155.677,3.675z"/>
</g>
<g>
	<g>
		<path fill="#FFFFFF" d="M-90.091,50.105c-0.265,0-0.529-0.1-0.734-0.302l-48.033-48.033c-0.405-0.405-0.405-1.062,0-1.467
			c0.405-0.405,1.064-0.405,1.469,0l48.033,48.033c0.405,0.405,0.405,1.062,0,1.467C-89.562,50.006-89.826,50.105-90.091,50.105z"/>
	</g>
	<g>
		<path fill="#FFFFFF" d="M-138.124,50.105c-0.265,0-0.529-0.1-0.735-0.302c-0.405-0.405-0.405-1.062,0-1.467l48.033-48.033
			c0.405-0.405,1.063-0.405,1.469,0c0.405,0.405,0.405,1.062,0,1.467l-48.033,48.033C-137.594,50.006-137.859,50.105-138.124,50.105
			z"/>
	</g>
</g>
<g>
	<path fill="#FFFFFF" d="M-131.029,8.481c-1.601-2.729-4.164-4.669-7.222-5.467c-0.918-0.24-1.854-0.369-2.786-0.385
		c-0.07-0.001-0.143-0.003-0.213-0.003c-3.569,0-6.892,1.597-9.147,4.389c-1.554-4.083-5.322-6.759-9.66-6.836
		c-0.585-0.008-1.169,0.027-1.747,0.112c-2.814,0.417-5.293,1.9-6.988,4.179c-1.695,2.281-2.402,5.085-1.988,7.896
		c0.763,5.171,5.102,8.99,10.321,9.083c0.576,0.014,1.167-0.028,1.752-0.112c2.384-0.352,4.526-1.502,6.21-3.334
		c0.297,0.961,0.63,1.743,1.046,2.448c1.602,2.729,4.165,4.669,7.22,5.466c0.91,0.239,1.849,0.368,2.786,0.383
		c0.072,0.002,0.146,0.003,0.218,0.003c5.374,0,10.077-3.638,11.438-8.847C-128.99,14.399-129.43,11.212-131.029,8.481z
		 M-141.227,24.47c-0.063,0-0.122,0-0.185-0.001c-0.79-0.014-1.582-0.124-2.357-0.325c-2.587-0.676-4.754-2.316-6.103-4.623
		c-1.351-2.306-1.723-4.998-1.048-7.582c1.152-4.405,5.129-7.481,9.668-7.481l0.179,0c0.791,0.015,1.585,0.125,2.357,0.327
		c2.585,0.675,4.754,2.316,6.105,4.622c1.351,2.306,1.723,4.999,1.048,7.584C-132.709,21.394-136.683,24.47-141.227,24.47z
		 M-152.989,15.71c-1.388,2.068-3.566,3.457-5.986,3.813c-0.438,0.064-0.882,0.097-1.319,0.097c-4.312,0-8.041-3.234-8.67-7.524
		c-0.342-2.326,0.24-4.647,1.642-6.535c1.405-1.888,3.459-3.116,5.784-3.457c0.429-0.063,0.862-0.095,1.28-0.095
		c0.057,0,0.112,0,0.169,0.001c4.094,0.073,7.545,2.931,8.409,6.955c-0.478,0.906-0.798,1.704-1.013,2.508
		C-153.043,12.822-153.141,14.248-152.989,15.71z"/>
	<g>
		<path fill="#FFFFFF" d="M-143.656,27.676c-1.178-0.286-2.377-0.426-3.577-0.485c-3.386-3.011-7.828-4.821-12.671-4.821
			c-1.048,0-2.107,0.087-3.147,0.26c-5.039,0.834-9.453,3.582-12.427,7.736c-2.974,4.155-4.154,9.218-3.319,14.26
			c0.274,1.655,0.762,3.342,1.389,5.025c0.15,0.185,0.355,0.303,0.605,0.33l1.559,0.02c0-0.004-0.002-0.01-0.005-0.015h44.773
			c0.006,0,0.006,0,0.01,0h0.312c0.483-0.048,0.813-0.452,0.885-0.949c0.004-0.046,0.02-0.061,0.026-0.096
			C-127.875,39.313-134.014,30.01-143.656,27.676z M-167.465,48.065h-8.428c-0.01,0-0.02,0.005-0.03,0.005
			c-0.415-1.249-0.77-2.507-0.98-3.761c-0.75-4.535,0.31-9.089,2.985-12.826c2.674-3.737,6.646-6.21,11.182-6.96
			c0.935-0.156,1.889-0.235,2.832-0.235c3.566,0,6.848,1.146,9.607,3.026c-7.92,0.883-14.534,6.541-16.449,14.453
			C-167.223,43.74-167.443,45.866-167.465,48.065z M-131.087,48.065h-34.488c0.03-2.02,0.245-3.989,0.694-5.848
			c1.877-7.75,8.748-13.164,16.71-13.164c1.36,0,2.727,0.165,4.062,0.487c4.467,1.082,8.245,3.837,10.64,7.76
			C-131.419,40.658-130.604,44.289-131.087,48.065z"/>
	</g>
</g>
<g>
	<path fill="#FFFFFF" d="M-118.229,44.273c-0.09,0-0.185-0.015-0.271-0.047c-0.331-0.116-0.554-0.427-0.554-0.777
		c0-4.277,4.932-25.801,28.215-26.297V5.545c0-0.805,0.743-1.436,1.691-1.436c0.652,0,1.313,0.303,1.863,0.853l17.544,17.545
		c0.914,0.912,0.914,2.398,0.004,3.313l-17.548,17.543c-0.352,0.353-0.862,0.554-1.403,0.554l0,0c-1.035,0-2.151-0.751-2.151-2.401
		V30.688c-16.698,0.183-21.106,5.938-25.373,11.509c-0.455,0.597-0.91,1.188-1.374,1.769
		C-117.744,44.164-117.984,44.273-118.229,44.273z M-90.014,29.035c0.455,0,0.824,0.369,0.824,0.824v11.656
		c0,0.344,0.086,0.754,0.503,0.754l0,0c0.124,0,0.21-0.043,0.24-0.069l17.544-17.546c0.271-0.271,0.271-0.71,0-0.981L-88.446,6.127
		c-0.24-0.239-0.489-0.327-0.713-0.369c-0.013,0-0.021-0.002-0.03-0.006v12.216c0,0.455-0.369,0.824-0.824,0.824
		c-19.149,0-25.506,14.755-27.004,21.752C-112.76,35.015-107.514,29.035-90.014,29.035z"/>
</g>
<g>
	<path fill="#FFFFFF" d="M-90.85,0h-29.087c-0.471,0-0.853,0.382-0.853,0.853v46.033v2.274c0,0.473,0.382,0.856,0.853,0.856h29.087
		c1.946,0,3.533-1.584,3.533-3.53v-2.275V3.528C-87.316,1.582-88.903,0-90.85,0z M-89.023,3.528v40.683
		c0,1.005-0.818,1.822-1.826,1.822h-2.595V1.706h2.595C-89.842,1.706-89.023,2.523-89.023,3.528z M-113.299,46.033V1.706h12.858
		v44.328H-113.299z M-119.084,1.706h4.079v44.328h-4.079V1.706z M-90.85,48.31h-28.235V47.74h28.235
		c0.569,0,1.098-0.146,1.572-0.388C-89.587,47.913-90.165,48.31-90.85,48.31z"/>
</g>
<g>
	<path fill="#FFFFFF" d="M-104.188,38.311c-4.036,0-19.968-18.553-24.757-24.238c-0.352-0.421-0.3-1.047,0.122-1.4
		c0.417-0.352,1.043-0.302,1.401,0.119c9.707,11.53,21.053,23.483,23.235,23.531c2.183-0.045,13.604-12.001,23.383-23.534
		c0.356-0.419,0.983-0.469,1.399-0.117c0.42,0.357,0.472,0.984,0.117,1.403C-84.108,19.761-100.149,38.311-104.188,38.311z"/>
</g>
<path fill="#FFFFFF" d="M-100.045,23.947h-46.605c2.144-3.558,12.759-13.521,23.061-22.197c0.421-0.353,0.473-0.979,0.122-1.398
	c-0.356-0.418-0.981-0.472-1.398-0.119c-5.51,4.637-23.066,19.725-24.089,24.29c-0.06,0.127-0.098,0.265-0.098,0.416
	c0,0.149,0.039,0.288,0.098,0.415c1.02,4.571,18.579,19.762,24.086,24.433c0.186,0.157,0.413,0.236,0.641,0.236
	c0.281,0,0.561-0.12,0.757-0.35c0.354-0.42,0.302-1.043-0.117-1.399c-10.307-8.74-20.924-18.773-23.066-22.343h46.608
	c0.548,0,0.992-0.445,0.992-0.992C-99.053,24.391-99.497,23.947-100.045,23.947z"/>
<g>
	<path fill="#FFFFFF" d="M-115.285,39.449c1.469,3.656,2.767,5.52,4.955,5.52c1.711,0,3.743-0.62,5.945-4.137
		c2.324-3.531,4.129-8.91,3.612-15.304c-0.26-3.172-1.121-6.583-2.866-9.832c-1.739-3.232-4.379-6.314-7.834-8.632
		c-4.303-2.907-9.202-3.995-13.542-3.665c-4.374,0.302-8.157,1.939-11.137,3.947c-2.961,2.05-5.304,4.445-6.853,6.819
		c-1.552,2.411-2.388,4.841-2.869,6.989c-0.928,4.339-0.569,7.54-0.276,9.529c0.332,2.001,0.651,2.875,0.64,2.877
		c0.131,0.626-0.394,1.309-1.224,1.536c-0.819,0.226-1.65-0.159-1.802-0.872c0.012,0-0.294-1.283-0.467-3.809
		c-0.138-2.507-0.15-6.338,1.352-11.032c0.764-2.329,1.944-4.864,3.826-7.261c1.931-2.357,4.328-4.569,7.361-6.431
		c3.013-1.837,6.669-3.26,10.748-3.606c4.059-0.359,8.516,0.383,12.587,2.509c4.591,2.396,7.994,5.938,10.253,9.688
		c2.245,3.776,3.338,7.731,3.688,11.355c0.684,7.299-1.311,13.22-3.837,17.128c-1.341,2.06-2.446,2.961-4.051,3.866
		c-1.589,0.895-3.307,1.271-4.692,0.837c-1.388-0.432-2.886-1.405-3.72-2.647c-1.164-1.729-2.156-3.957-2.992-6.544
		c-3.191-9.866-3.652-15.547-3.942-18.525c-0.098-1.521-0.357-2.99,0.11-5.078c0.281-0.923,0.412-1.476,1.151-2.93
		c0.682-1.229,1.893-1.801,1.893-1.801c-0.001,0.029,0.357-0.138,1.043-0.016c0.665,0.17,1.572,0.7,2.286,1.967
		c0.175,0.315,0.334,0.664,0.478,1.042c0.123,0.333,0.197,0.575,0.277,0.882c0.159,0.591,0.286,1.226,0.374,1.898
		c0.437,2.821-0.16,6.215-1.375,9.792c-0.636,1.791-1.453,3.658-2.699,5.444c-0.622,0.891-1.378,1.752-2.345,2.482
		c-0.938,0.748-2.244,1.222-3.557,1.285c-1.582,0.043-3.225-0.42-4.514-1.296c-1.304-0.864-2.246-2.021-3.001-3.165
		c-1.51-2.358-2.559-4.347-3.464-6.883c-0.805-2.256-0.862-5.011-0.463-7.374c0.231-1.175,0.591-2.349,1.352-3.434
		c0.452-0.588,1.091-1.214,1.849-1.422c0.745-0.279,1.575-0.119,2.237,0.283c0.649,0.407,1.191,1.071,1.473,1.51
		c0.926,1.434,1.421,2.626,1.652,4.399c0.619,4.727-0.535,16.694-7.415,27.037c0,0-0.533,0.496-1.235-0.168
		c-0.569-0.542-0.056-1.096-0.056-1.096c5.613-7.967,7.506-19.601,6.405-26.028c-0.149-0.873-0.386-1.544-0.714-2.273
		c-0.163-0.364-0.359-0.707-0.57-1.023c-0.194-0.242-0.358-0.462-0.605-0.583c-0.515-0.296-1.103,0.024-1.467,0.562
		c-0.47,0.636-0.796,1.486-1.006,2.382c-0.404,1.797-0.547,3.938-0.023,5.779c0.224,0.791,0.438,1.443,1.127,2.882
		c0.467,0.981,0.903,1.989,1.418,2.962c1.032,1.913,2.336,3.868,4.334,4.761c1.448,0.646,3.185,0.704,4.461,0.055
		c1.332-0.671,2.34-1.925,3.124-3.187c1.572-2.564,2.428-5.32,2.926-7.773c0.515-2.5,0.522-4.623,0.075-6.406
		c-0.097-0.439-0.211-0.846-0.344-1.211c-0.146-0.419-0.211-0.507-0.334-0.733c-0.221-0.371-0.491-0.638-0.777-0.713
		c-0.223-0.116-0.459,0.038-0.584,0.218c-0.144,0.178-0.249,0.374-0.34,0.569c-0.131,0.271-0.414,1.05-0.592,1.734
		c-0.321,1.211-0.363,2.702-0.275,4.039c0.172,2.565,0.499,5.064,0.94,7.266C-117.491,34.885-116.754,35.793-115.285,39.449z"/>
</g>
<g>
	<g>
		<path fill="#ED1C24" d="M201.906,17.556c-4.838,0-8.772-3.936-8.772-8.772s3.935-8.772,8.772-8.772s8.773,3.936,8.773,8.772
			S206.744,17.556,201.906,17.556z"/>
	</g>
	<path fill="#ED1C24" d="M215.033,31.197c0-2.53-2.058-4.589-4.586-4.589c-0.774,0-1.502,0.21-2.152,0.559
		c-0.229-0.34-0.461-0.674-0.668-1.024c-0.787-1.334-1.352-2.596-1.851-3.708c-1.042-2.328-1.866-4.167-3.87-4.167
		c-2.039,0-3.075,2.236-4.387,5.066c-0.553,1.195-1.182,2.549-1.943,3.87c-0.64,1.102-1.33,2.096-2.002,3.057
		c-1.721,2.474-3.344,4.81-3.344,8.075c0,6.438,5.238,11.675,11.676,11.675c6.438,0,11.676-5.237,11.676-11.675
		c0-0.828-0.153-1.613-0.363-2.386C214.276,34.335,215.033,32.629,215.033,31.197z M213.354,31.197c0,3.251-5.18,8.452-6.369,8.785
		c-1.19-0.333-6.369-5.532-6.369-8.785c0-1.604,1.302-2.908,2.906-2.908c1.178,0,2.234,0.707,2.684,1.801
		c0.264,0.63,1.296,0.63,1.555,0c0.453-1.094,1.506-1.801,2.688-1.801C212.049,28.289,213.354,29.594,213.354,31.197z"/>
</g>
<g>
	<g>
		<path fill="#ED1C24" d="M198.798,0c-4.05,0-7.34,3.293-7.34,7.34c0,4.048,3.29,7.342,7.34,7.342s7.341-3.293,7.341-7.342
			C206.139,3.293,202.848,0,198.798,0z"/>
	</g>
	<g>
		<path fill="#ED1C24" d="M198.798,50.021c-6.665,0-12.085-5.421-12.085-12.088c0-3.38,1.682-5.798,3.463-8.358
			c0.691-0.995,1.404-2.024,2.067-3.165c0.794-1.366,1.44-2.769,2.015-4.004c1.356-2.932,2.431-5.246,4.54-5.246
			c2.079,0,2.93,1.904,4.01,4.315c0.514,1.151,1.097,2.457,1.912,3.838c0.653,1.102,1.377,2.164,2.096,3.21
			c2.093,3.064,4.069,5.956,4.069,9.411C210.885,44.6,205.464,50.021,198.798,50.021z"/>
	</g>
</g>
<g>
	<g>
		<path fill="#008ED4" d="M214.31,17.548c-4.838,0-8.775-3.937-8.775-8.774c0-4.837,3.938-8.774,8.775-8.774
			c4.836,0,8.773,3.937,8.773,8.774C223.083,13.612,219.146,17.548,214.31,17.548z"/>
	</g>
	<path fill="#008ED4" d="M230.292,31.19c0-2.528-2.059-4.589-4.586-4.589c-0.088,0-0.17,0.024-0.256,0.028
		c-1.436-4.823-5.859-8.37-11.141-8.37c-6.441,0-11.678,5.238-11.678,11.679c0,8.918,8.466,20.07,11.678,20.07
		c1.822,0,5.324-3.617,8.025-8.359C224.304,41.472,230.292,35.244,230.292,31.19z M222.243,39.979
		c-1.189-0.332-6.373-5.534-6.373-8.788c0-1.603,1.303-2.907,2.908-2.907c1.18,0,2.234,0.707,2.686,1.8
		c0.262,0.631,1.295,0.631,1.555,0c0.451-1.093,1.508-1.8,2.688-1.8c1.604,0,2.904,1.305,2.904,2.907
		C228.61,34.444,223.431,39.646,222.243,39.979z"/>
</g>
<g>
	<g>
		<path fill="#008ED4" d="M210.869,17.565c-4.844,0-8.783-3.94-8.783-8.782c0-4.842,3.939-8.783,8.783-8.783
			c4.842,0,8.781,3.94,8.781,8.783C219.65,13.625,215.711,17.565,210.869,17.565z"/>
	</g>
	<g>
		<path fill="#008ED4" d="M210.869,50.055c-3.215,0-11.689-11.163-11.689-20.089c0-6.445,5.242-11.688,11.689-11.688
			c6.443,0,11.688,5.243,11.688,11.688C222.557,38.892,214.082,50.055,210.869,50.055z"/>
	</g>
</g>
<g>
	<g>
		<defs>
			<path id="SVGID_1_" d="M221.959,34.149c0-0.515,0.131-1.152,0.267-1.825c0.16-0.781,0.324-1.588,0.324-2.374
				c0-6.442-5.239-11.682-11.682-11.682c-6.441,0-11.681,5.24-11.681,11.682c0,0.786,0.164,1.593,0.324,2.374
				c0.135,0.673,0.267,1.311,0.267,1.825s-0.132,1.152-0.267,1.825c-0.16,0.781-0.324,1.588-0.324,2.374
				c0,6.441,5.239,11.682,11.681,11.682c6.442,0,11.682-5.24,11.682-11.682c0-0.786-0.164-1.593-0.324-2.374
				C222.09,35.302,221.959,34.664,221.959,34.149z"/>
		</defs>
		<clipPath id="SVGID_2_">
			<use xlink:href="#SVGID_1_"  overflow="visible"/>
		</clipPath>
		<g clip-path="url(#SVGID_2_)">
			<rect x="198.596" y="41.859" fill="#722A83" width="24.545" height="8.421"/>
			<rect x="198.596" y="33.479" fill="#3E5FAB" width="24.545" height="8.421"/>
			<rect x="198.596" y="25.06" fill="#078140" width="24.545" height="8.419"/>
			<rect x="198.596" y="16.641" fill="#FDEC06" width="24.545" height="8.419"/>
		</g>
	</g>
	<g>
		<defs>
			<path id="SVGID_3_" d="M210.868,17.556c4.839,0,8.776-3.938,8.776-8.778c0-4.84-3.938-8.778-8.776-8.778
				s-8.776,3.938-8.776,8.778C202.092,13.618,206.029,17.556,210.868,17.556z"/>
		</defs>
		<clipPath id="SVGID_4_">
			<use xlink:href="#SVGID_3_"  overflow="visible"/>
		</clipPath>
		<g clip-path="url(#SVGID_4_)">
			<rect x="198.596" y="16.641" fill="#FDEC06" width="24.545" height="8.419"/>
			<rect x="198.596" y="8.366" fill="#F68C1F" width="24.545" height="8.42"/>
			<rect x="198.596" y="-0.053" fill="#E31E26" width="24.545" height="8.419"/>
		</g>
	</g>
</g>
<g>
	<defs>
		<path id="SVGID_5_" d="M245.616,25.883c0-0.229,0.059-0.514,0.119-0.814c0.071-0.348,0.145-0.708,0.145-1.058
			c0-2.872-2.336-5.208-5.208-5.208s-5.208,2.336-5.208,5.208c0,0.35,0.073,0.71,0.145,1.058c0.061,0.3,0.119,0.584,0.119,0.814
			s-0.059,0.514-0.119,0.814c-0.071,0.348-0.145,0.707-0.145,1.058c0,2.872,2.336,5.208,5.208,5.208s5.208-2.336,5.208-5.208
			c0-0.351-0.073-0.71-0.145-1.058C245.675,26.396,245.616,26.112,245.616,25.883z"/>
	</defs>
	<clipPath id="SVGID_6_">
		<use xlink:href="#SVGID_5_"  overflow="visible"/>
	</clipPath>
	<g clip-path="url(#SVGID_6_)">
		<rect x="235.2" y="29.32" fill="#722A83" width="10.943" height="3.754"/>
		<rect x="235.2" y="25.584" fill="#3E5FAB" width="10.943" height="3.754"/>
		<rect x="235.2" y="21.83" fill="#078140" width="10.943" height="3.754"/>
		<rect x="235.2" y="18.077" fill="#FDEC06" width="10.943" height="3.753"/>
	</g>
</g>
<g>
	<defs>
		<path id="SVGID_7_" d="M240.672,18.485c2.157,0,3.913-1.756,3.913-3.914s-1.756-3.914-3.913-3.914s-3.913,1.756-3.913,3.914
			S238.515,18.485,240.672,18.485z"/>
	</defs>
	<clipPath id="SVGID_8_">
		<use xlink:href="#SVGID_7_"  overflow="visible"/>
	</clipPath>
	<g clip-path="url(#SVGID_8_)">
		<rect x="235.2" y="18.077" fill="#FDEC06" width="10.943" height="3.753"/>
		<rect x="235.2" y="14.388" fill="#F68C1F" width="10.943" height="3.754"/>
		<rect x="235.2" y="10.634" fill="#E31E26" width="10.943" height="3.753"/>
	</g>
</g>
<g>
	<defs>
		<path id="SVGID_9_" d="M242.732,25.883c0-0.229,0.059-0.514,0.119-0.814c0.071-0.348,0.145-0.708,0.145-1.058
			c0-2.872-2.336-5.208-5.208-5.208s-5.208,2.336-5.208,5.208c0,0.35,0.073,0.71,0.145,1.058c0.061,0.3,0.119,0.584,0.119,0.814
			s-0.059,0.514-0.119,0.814c-0.071,0.348-0.145,0.707-0.145,1.058c0,2.872,2.336,5.208,5.208,5.208s5.208-2.336,5.208-5.208
			c0-0.351-0.073-0.71-0.145-1.058C242.791,26.396,242.732,26.112,242.732,25.883z"/>
	</defs>
	<clipPath id="SVGID_10_">
		<use xlink:href="#SVGID_9_"  overflow="visible"/>
	</clipPath>
	<rect x="232.316" y="29.32" clip-path="url(#SVGID_10_)" fill="#722A83" width="10.943" height="3.754"/>
	<rect x="232.316" y="25.584" clip-path="url(#SVGID_10_)" fill="#3E5FAB" width="10.943" height="3.754"/>
	<rect x="232.316" y="21.83" clip-path="url(#SVGID_10_)" fill="#078140" width="10.943" height="3.754"/>
	<rect x="232.316" y="18.077" clip-path="url(#SVGID_10_)" fill="#FDEC06" width="10.943" height="3.753"/>
</g>
<g>
	<defs>
		<path id="SVGID_11_" d="M237.788,18.485c2.157,0,3.913-1.756,3.913-3.914s-1.756-3.914-3.913-3.914s-3.913,1.756-3.913,3.914
			S235.631,18.485,237.788,18.485z"/>
	</defs>
	<clipPath id="SVGID_12_">
		<use xlink:href="#SVGID_11_"  overflow="visible"/>
	</clipPath>
	<rect x="232.316" y="18.077" clip-path="url(#SVGID_12_)" fill="#FDEC06" width="10.943" height="3.753"/>
	<rect x="232.316" y="14.388" clip-path="url(#SVGID_12_)" fill="#F68C1F" width="10.943" height="3.754"/>
	<rect x="232.316" y="10.634" clip-path="url(#SVGID_12_)" fill="#E31E26" width="10.943" height="3.753"/>
</g>
<g>
	<g>
		<defs>
			<path id="SVGID_13_" d="M220.854,17.541c-4.837,0-8.771-3.935-8.771-8.77S216.017,0,220.854,0c4.836,0,8.771,3.935,8.771,8.771
				S225.689,17.541,220.854,17.541z"/>
		</defs>
		<clipPath id="SVGID_14_">
			<use xlink:href="#SVGID_13_"  overflow="visible"/>
		</clipPath>
		<g clip-path="url(#SVGID_14_)">
			<rect x="209.18" y="16.582" fill="#FDEC06" width="24.524" height="8.412"/>
			<rect x="209.18" y="8.315" fill="#F68C1F" width="24.524" height="8.413"/>
			<rect x="209.18" y="-0.096" fill="#E31E26" width="24.524" height="8.412"/>
		</g>
	</g>
	<g>
		<defs>
			<path id="SVGID_15_" d="M236.111,32.182c0-2.299-1.707-4.189-3.913-4.52c-1.063-5.343-5.694-9.41-11.345-9.41
				c-6.437,0-11.674,5.236-11.674,11.673c0,0.785,0.166,1.59,0.324,2.37c0.14,0.674,0.27,1.311,0.27,1.825
				c0,0.514-0.13,1.15-0.27,1.825c-0.158,0.779-0.324,1.584-0.324,2.369c0,6.438,5.237,11.672,11.674,11.672
				c6.07,0,11.017-4.674,11.563-10.607C234.347,37.21,236.111,34.378,236.111,32.182z M234.43,32.182
				c0,3.252-5.177,8.451-6.368,8.784c-1.19-0.333-6.368-5.532-6.368-8.784c0-1.603,1.305-2.906,2.907-2.906
				c1.179,0,2.231,0.706,2.685,1.798c0.26,0.631,1.293,0.631,1.554,0c0.453-1.092,1.506-1.798,2.686-1.798
				C233.126,29.275,234.43,30.579,234.43,32.182z"/>
		</defs>
		<clipPath id="SVGID_16_">
			<use xlink:href="#SVGID_15_"  overflow="visible"/>
		</clipPath>
		<g clip-path="url(#SVGID_16_)">
			<rect x="208.591" y="41.779" fill="#722A83" width="27.521" height="8.412"/>
			<rect x="208.591" y="33.406" fill="#3E5FAB" width="27.521" height="8.413"/>
			<rect x="208.591" y="24.994" fill="#078140" width="27.521" height="8.413"/>
			<rect x="208.591" y="16.582" fill="#FDEC06" width="27.521" height="8.412"/>
		</g>
	</g>
</g>
<path fill="#E92A28" d="M45.511,37.722c-0.617,0-1.072,0.426-1.357,1.303c-0.168,0.741-0.646,1.35-1.461,1.863
	c-0.72,0.453-1.492,0.709-2.344,0.77c0.027-0.306,0.042-0.614,0.042-0.922c0-2.721-0.895-5.078-2.655-7.017
	c-1.774-1.94-3.939-2.923-6.437-2.923c-2.508,0-4.674,0.984-6.435,2.923c-1.752,1.938-2.641,4.296-2.641,7.017
	c0,2.7,0.888,5.053,2.641,6.989c1.76,1.938,3.925,2.926,6.435,2.926c3.86,0,6.689-2.064,8.414-6.135
	c2.125-0.148,3.818-0.813,5.029-1.972c1.261-1.208,1.912-2.41,1.935-3.585C46.675,38.185,46.24,37.722,45.511,37.722z
	 M31.583,47.523c-1.505,0-2.757-0.634-3.829-1.943c-1.077-1.306-1.624-2.919-1.624-4.782c0-1,0.157-1.927,0.468-2.771
	c0.561,1.653,1.719,3.078,3.458,4.256c1.66,1.14,3.73,1.856,6.162,2.135C35.122,46.507,33.6,47.523,31.583,47.523z M29.672,35.745
	c0-0.669,0.199-1.565,1.919-1.656c1.512,0.003,2.768,0.632,3.838,1.927c1.081,1.313,1.628,2.921,1.628,4.782
	c0,0.258-0.013,0.511-0.036,0.751c-0.919-0.135-1.854-0.378-2.779-0.727C31.232,39.565,29.737,37.901,29.672,35.745z"/>
<path fill="#E92A28" d="M62.685,37.924c-0.888,0-1.403,0.786-1.534,2.34c-0.118,1.522-0.486,2.756-1.099,3.667
	c-0.58,0.862-1.277,1.278-2.13,1.278c-1.435,0-2.241-1.065-2.467-3.262c-0.135-1.238-0.205-2.4-0.205-3.462
	c0-0.907,0.055-1.752,0.168-2.518c0.071-0.634,0.104-1.181,0.104-1.666c0-1.138-0.171-2.122-0.508-2.929
	c-0.538-1.249-1.381-1.513-1.993-1.513c-0.23,0-0.482,0.04-0.773,0.124c-0.971,0.289-1.463,1.184-1.463,2.648
	c0,0.434,0.045,0.92,0.131,1.438c0.243,1.62,0.366,3.316,0.366,5.035c0,0.546-0.09,1.234-0.271,2.052
	c-0.172,0.799-0.383,1.415-0.626,1.833c-0.791,1.376-1.944,2.062-3.519,2.103l-0.155-0.023c-1.646,0-2.818-0.738-3.575-2.259
	c-0.398-0.8-0.597-1.724-0.597-2.759c0-0.393,0.027-0.812,0.079-1.229c0.162-1.168,0.246-2.32,0.246-3.427
	c0-0.421-0.01-0.837-0.037-1.261c-0.088-1.561-0.506-2.735-1.246-3.491c-0.786-0.806-1.686-1.002-2.729-0.54
	c-0.462,0.208-1.011,0.677-1.011,1.729c0,0.443,0.106,0.972,0.308,1.578c0.346,1.561,0.538,3.299,0.567,5.168
	c0.027,1.929,0.385,3.78,1.069,5.504c0.697,1.778,1.852,3.031,3.432,3.725c0.956,0.434,1.972,0.654,3.018,0.654
	c0.668,0,1.363-0.085,2.072-0.256c1.292-0.306,2.584-1.135,3.85-2.47l0.042,0.05l0.575-0.687c0.299,0.557,0.602,0.992,0.917,1.328
	c1.103,1.175,2.521,1.771,4.251,1.771c1.204,0,2.396-0.525,3.548-1.563c1.142-1.027,1.926-2.608,2.325-4.705
	c0.125-0.661,0.191-1.265,0.191-1.793C64.006,38.31,63.287,37.924,62.685,37.924z"/>
<path fill="#E92A28" d="M136.464,36.807c-0.124-0.029-0.244-0.045-0.361-0.045c-0.39,0-0.923,0.176-1.242,1.024
	c-0.611,2.08-1.469,3.884-2.673,5.419c-1.643,2.094-7.924,4.905-12.172-0.326c-0.18-0.218-0.305-0.473-0.438-0.743
	c2.815-0.645,5-1.739,6.498-3.255c1.511-1.508,2.277-3.216,2.277-5.09c0-0.213-0.008-0.436-0.021-0.675
	c-0.207-2.153-1.255-3.597-3.102-4.286c-1.742-0.693-3.697-0.545-5.807,0.545c-2.416,1.563-3.879,3.826-4.348,6.716
	c-0.138,0.729-0.209,1.528-0.209,2.385c0.061,3.274,1.033,5.664,2.704,7.3c5.571,5.451,12.617,3.918,16.478-0.579
	c1.806-2.102,2.5-4.261,3.148-6.681C137.465,37.416,136.891,36.985,136.464,36.807z M125.043,33.941
	c0,0.869-0.425,1.806-1.264,2.775c-1.174,1.33-2.851,2.197-4.989,2.58c-0.054-0.24-0.079-0.511-0.079-0.807
	c0-0.816,0.193-1.828,0.579-3.016c0.589-1.824,1.564-2.967,2.986-3.489c0.396-0.15,0.76-0.223,1.081-0.223
	c0.698,0,1.171,0.36,1.482,1.14C124.978,33.245,125.043,33.586,125.043,33.941z"/>
<path fill="#E92A28" d="M83.663,47.599c9.493-14.274,11.085-30.785,10.231-37.31c-0.319-2.447-1.003-4.091-2.28-6.07
	c-0.388-0.603-1.135-1.52-2.032-2.084c-0.91-0.555-2.059-0.774-3.086-0.389c-1.045,0.289-1.928,1.149-2.552,1.962
	c-1.048,1.498-1.545,3.117-1.864,4.739c-0.55,3.261-0.472,7.062,0.639,10.176c1.248,3.499,2.696,6.242,4.779,9.495
	c1.041,1.577,2.343,3.176,4.141,4.369c1.779,1.209,4.047,1.849,6.229,1.785c1.813-0.085,3.614-0.736,4.91-1.771
	c1.331-1.007,2.376-2.196,3.234-3.425c1.719-2.465,2.848-5.042,3.725-7.512c1.676-4.936,2.498-9.618,1.896-13.51
	c-0.12-0.929-0.296-1.804-0.515-2.62c-0.11-0.425-0.213-0.759-0.383-1.218c-0.2-0.521-0.417-1.003-0.657-1.439
	c-0.987-1.749-2.241-2.479-3.155-2.715c-0.948-0.168-1.442,0.063-1.438,0.022c0,0-1.675,0.788-2.614,2.487
	c-1.02,2.008-1.198,2.77-1.588,4.042c-0.644,2.88-0.285,4.907-0.152,7.008c0.4,4.109,1.061,7.664,1.69,10.849
	c1.304,6.355,2.625,11.132,3.749,14.714c1.144,3.572,2.03,5.954,2.674,7.442c0.61,1.493,0.913,2.095,0.913,2.095
	c0.544,1.029,2.059,1.227,3.377,0.445c1.317-0.784,2.026-2.111,1.574-2.958c0,0-0.377-0.581-1.127-2.027
	c-0.753-1.433-1.845-3.765-3.155-7.254c-1.301-3.482-2.825-8.131-4.299-14.168c-0.706-3.017-1.428-6.391-1.88-10.099
	c-0.17-1.841-0.422-3.812,0.021-5.482c0.248-0.943,0.638-2.02,0.817-2.393c0.124-0.27,0.272-0.541,0.468-0.786
	c0.174-0.249,0.498-0.46,0.806-0.301c0.396,0.103,0.769,0.472,1.074,0.983c0.169,0.315,0.257,0.436,0.459,1.013
	c0.185,0.507,0.342,1.067,0.476,1.671c0.616,2.46,0.604,5.389-0.104,8.84c-0.686,3.386-1.868,7.189-4.035,10.728
	c-1.084,1.737-2.474,3.471-4.313,4.394c-1.763,0.899-4.158,0.818-6.155-0.073c-2.758-1.233-4.557-3.93-5.981-6.568
	c-0.709-1.345-1.312-2.735-1.958-4.089c-0.948-1.986-1.244-2.885-1.554-3.977c-0.723-2.541-0.525-5.495,0.033-7.974
	c0.289-1.237,0.739-2.409,1.388-3.285c0.503-0.744,1.313-1.188,2.025-0.777c0.341,0.169,0.567,0.471,0.834,0.806
	c0.291,0.436,0.562,0.91,0.788,1.41c0.452,1.008,0.777,1.932,0.984,3.139c1.518,8.868-1.094,24.922-8.838,35.914
	c-0.797,1.13-1.934,1.501-2.908,1.544c-0.973,0.045-2.873-1.258-3.172-3.274c-0.091-0.592-0.138-1.2-0.138-1.799
	c0-1.661,0.351-3.35,1.039-5.013c0.451-0.987,0.671-1.764,0.671-2.367c0-1.205-0.639-1.917-1.823-2.006
	c-0.781,0-1.59,0.516-2.472,1.582c-0.893,1.083-1.908,1.684-3.087,1.826c0.403-1.047,0.603-1.951,0.599-2.772
	c-0.194-2.584-1.776-3.215-3.115-3.291c-1.996,0.123-3.162,1.354-3.47,3.712c0,0.644,0.127,1.367,0.398,2.247
	c0.848,2.092,2.433,3.236,4.74,3.406c1.205,0,2.32-0.313,3.333-0.929c-0.342,1.383-0.516,2.673-0.516,3.848
	c0,1.596,0.319,3.019,0.946,4.233c1.217,2.365,3.112,3.585,5.634,3.585C80.866,50.385,82.593,49.207,83.663,47.599z"/>
<path fill="#E92A28" d="M21,49.99c-1.241-0.025-5.599-0.388-9.362-4.058c-3.257-3.009-5.126-8.069-4.884-13.198
	c0.128-2.918,0.673-5.521,1.667-7.962c0.765-1.882,1.896-3.679,3.27-5.203c0.089-0.095,0.114-0.238,0.064-0.362
	c-0.051-0.125-0.167-0.206-0.301-0.215c-2.178-0.129-4.336-0.334-6.597-0.621L1.45,17.89c-0.365-0.086-1.746-1.036-1.392-2.92
	c0.326-1.742,1.564-2.09,2.354-2.09c0.144,0,1.059,0.411,2.782,1.018c2.387,0.832,4.905,1.509,7.485,2.016
	c0.884,0.172,1.831,0.325,2.815,0.463c2.051-1.065,4.122-1.729,6.208-1.958c0.666-0.09,1.314-0.129,1.962-0.129
	c0.759,0,1.52,0.052,2.3,0.139c0.51,0.038,0.905,0.12,1.297,0.2c0.208,0.043,1.089,0.21,1.089,0.21
	c0.135,0.029,0.229,0.067,0.34,0.11c0.007,0,0.226,0.105,0.234,0.105c0.044,0.023,0.271,0.191,0.373,0.315
	c0.181,0.244,0.243,0.325,0.315,0.592c0.079,0.291,0.034,0.717-0.104,0.989c-0.156,0.282-0.235,0.354-0.378,0.478
	c-0.66,0.449-0.886,0.509-1.123,0.575c-0.107,0.029-0.213,0.058-0.343,0.11c-2.553,0.65-4.818,0.793-7.009,0.937l-0.263,0.019
	c-1.195,0.058-2.342,0.081-3.447,0.081c-0.649,0-1.911-0.02-1.913-0.02c-0.084,0-0.167,0.029-0.23,0.087
	c-2.656,2.36-4.468,5.861-4.972,9.596c-0.801,4.816,0.26,9.649,2.77,12.618c2.869,3.523,6.527,3.796,7.58,3.796l0.385,0.011
	c0.371,0,0.711-0.05,1.018-0.091c0.494-0.049,0.856-0.119,1.152-0.229l0.791-0.213c0.014,0,0.03,0,0.044,0
	c0.718,0,1.604,0.741,2.172,1.968c0.326,0.699,0.364,1.479,0.102,2.08c-0.195,0.443-0.532,0.755-0.974,0.898l-0.974,0.153
	c-0.594,0.129-1.482,0.186-2.811,0.186H21z"/>
<path fill="#E92A28" d="M134.037,36.502c-1.348,0.816-2.789,0.684-2.992,0.015c-0.218-0.684,0.574-1.546,1.691-2.225
	c0,0,0.477-0.141,1.203-0.511c0.777-0.454,1.435-0.651,3.275-2.589c0.279-0.304,0.575-0.622,0.916-0.989
	c0.247,1.099,0.511,2.47,0.937,3.365c0.288,0.626,0.585,1.095,0.878,1.543c0.597,0.866,1.138,1.367,1.138,1.367
	c0.754,1.005,1.232,2.057,0.803,2.644c-0.403,0.559-1.837,0.228-2.827-1.065c-0.587-0.754-0.883-1.518-1.176-2.392
	c-0.128-0.434-0.269-0.899-0.421-1.416c-0.05-0.25-0.107-0.525-0.173-0.849l-0.013-0.063c-0.19,0.156-0.432,0.474-0.575,0.659
	c-0.464,0.456-0.898,0.887-1.274,1.263C134.627,36.016,134.037,36.502,134.037,36.502"/>
</svg>
